<svg viewBox="0 0 120 120" fill="none" xmlns="http://www.w3.org/2000/svg">
<path d="M19 52.0477H35.3255L40.7674 46.606L43.908 58.3265L50.5257 33.6298L59.4989 67.1169L66.2287 42.0015L68.9207 52.0477H76.3487" stroke="currentColor" stroke-width="4" stroke-linejoin="round"/>
<ellipse cx="75.5129" cy="51.6226" rx="3.34883" ry="3.34871" fill="currentColor"/>
<path d="M30.3018 43.9794C32.1289 37.6651 36.1571 32.2058 41.6632 28.5817C47.1693 24.9576 53.7927 23.4059 60.3445 24.2052C66.8962 25.0045 72.9473 28.1025 77.4113 32.943C81.8754 37.7835 84.4602 44.0495 84.7016 50.6162C84.9431 57.183 82.8254 63.6203 78.7288 68.7728C74.6322 73.9253 68.8249 77.4554 62.3494 78.7294C55.8739 80.0035 49.1542 78.938 43.3967 75.7244C37.6392 72.5107 33.2208 67.3593 30.9348 61.1948" stroke="currentColor" stroke-width="4" stroke-linejoin="round"/>
<path d="M79.6978 74.2334L101.047 96" stroke="currentColor" stroke-width="8" stroke-linejoin="round"/>
</svg>
