<svg viewBox="0 0 204 181" fill="transparent" xmlns="http://www.w3.org/2000/svg">
<path d="M102.781 63.3438V11.7812" stroke="currentColor" stroke-width="4"/>
<path d="M130.125 71.1562L157.469 27.4062" stroke="currentColor" stroke-width="4"/>
<path d="M74.6562 71.1562L47.3125 27.4062" stroke="currentColor" stroke-width="4"/>
<path d="M144.969 91.4688L189.5 65.6875" stroke="currentColor" stroke-width="4"/>
<path d="M139.501 142.25L185.5 169" stroke="currentColor" stroke-width="4"/>
<path d="M63.7188 142.25L19.1875 168.031" stroke="currentColor" stroke-width="4"/>
<path d="M59.0312 91.4688L14.5 65.6875" stroke="currentColor" stroke-width="4"/>
<path d="M53.4174 118.734L1.99993 120.72" stroke="currentColor" stroke-width="4"/>
<path d="M150.438 118.734L201.855 120.72" stroke="currentColor" stroke-width="4"/>
<path d="M183.25 169.309C195.051 152.895 202 132.759 202 111C202 55.7715 157.228 11 102 11C46.7715 11 2 55.7715 2 111C2 132.646 8.87725 152.685 20.5659 169.052" stroke="currentColor" stroke-width="4"/>
<path d="M111.5 85L103.838 121.207" stroke="currentColor" stroke-width="4" stroke-linecap="square"/>
<circle cx="101.688" cy="128.75" r="9.5" fill="currentColor" fill-opacity="50%" stroke="currentColor" stroke-width="4"/>
</svg>
