<svg viewBox="0 0 94 79" fill="none" xmlns="http://www.w3.org/2000/svg">
<path d="M83.5625 72.9225C88.8727 65.5689 92 56.548 92 46.8C92 22.0576 71.8528 2 47 2C22.1472 2 2 22.0576 2 46.8C2 56.4972 5.09476 65.4748 10.3547 72.8073" stroke="currentColor" stroke-width="4"/>
<path d="M56.4249 28.5437L56.9738 26.6209L53.1236 25.5335L52.5746 27.4563L54.4998 28L56.4249 28.5437ZM45.902 50.8293C45.5988 51.8912 46.2149 52.9955 47.2782 53.2957C48.3414 53.596 49.449 52.9786 49.7522 51.9167L47.8271 51.373L45.902 50.8293ZM54.4998 28L52.5746 27.4563L45.902 50.8293L47.8271 51.373L49.7522 51.9167L56.4249 28.5437L54.4998 28Z" fill="currentColor"/>
<circle cx="47" cy="56" r="5" fill="currentColor" fill-opacity="50%" stroke="currentColor" stroke-width="4"/>
</svg>
