<svg viewBox="0 0 120 120" fill="none" xmlns="http://www.w3.org/2000/svg">
<rect x="26.0508" y="53.0305" width="73.5537" height="21.0153" rx="10.5077" stroke="currentColor" stroke-width="4"/>
<path d="M62.8286 59.1562V67.9126" stroke="currentColor" stroke-width="2" stroke-linejoin="round"/>
<path d="M67.2061 63.5303H58.4497" stroke="currentColor" stroke-width="2" stroke-linejoin="round"/>
<path d="M76.8375 49.9608C67.9352 42.5179 49.6927 25.7056 47.9414 18C50.1305 18 55.8222 18.8756 59.7625 21.0647C62.5646 23.1663 75.8159 35.9506 82.0913 42.0801" stroke="currentColor" stroke-width="2" stroke-linejoin="round"/>
<path d="M86.4709 50.4072C85.5953 49.2397 84.3694 46.029 86.4709 42.5265C86.9087 43.694 88.3098 45.9415 90.4113 45.5912C93.9139 45.0074 92.7464 39.6077 92.6004 36.8348H87.3466C87.7844 34.3538 89.7984 28.7789 94.3517 26.3271C97.2705 29.9756 103.108 40.7752 98.7299 54.7854" stroke="currentColor" stroke-width="2" stroke-linejoin="round"/>
<path d="M44.0007 50.4067C46.7735 47.7798 52.6695 41.913 54.0705 37.71C52.3193 37.71 48.2913 38.0602 46.1898 39.4612C44.0882 40.8623 37.4334 47.342 34.3687 50.4067" stroke="currentColor" stroke-width="2" stroke-linejoin="round"/>
<path d="M22.9864 61.778C19.9218 56.0863 17.2669 43.3896 20.4192 34.6332L26.1109 35.071C26.5487 36.2385 27.2492 39.0114 26.5487 40.7627C25.6731 42.9518 24.7974 47.7678 26.1109 49.519C27.4243 51.2703 28.7378 51.2703 30.9269 51.2703" stroke="currentColor" stroke-width="2" stroke-linejoin="round"/>
<path d="M58.0732 77.5392L54.5706 81.4796C54.8625 82.6471 55.2711 85.1572 54.5706 85.8578C53.695 86.7334 51.5059 85.8578 50.6302 86.7334C49.7546 87.609 51.0681 89.7981 49.7546 91.1116C48.4411 92.4251 46.6899 90.6738 45.3764 91.9872C44.0629 93.3007 45.8142 95.4898 44.5008 96.8033C43.1873 98.1167 40.9388 97.387 39.1875 97.2411" stroke="currentColor" stroke-width="2" stroke-linejoin="round"/>
<path d="M72.4823 76.6687C73.1962 87.6144 69.4213 98.1994 67.2058 102.5C65.2312 93.7554 64.7332 83.1934 64.8429 76.6687" stroke="currentColor" stroke-width="2" stroke-linejoin="round"/>
</svg>
