<svg  viewBox="0 0 120 120" fill="none" xmlns="http://www.w3.org/2000/svg">
<path d="M50 82C50 86.6667 50 91.3333 50 96C52.076 95.8834 54.1358 95.624 56.1616 95.2253C64.5495 93.5821 72.3851 89.4983 78.2576 83.4653C85.179 76.4534 89.1284 66.5803 88.5 57C87.9748 47.4007 82.9922 38.6304 75.9632 33.0442C69.9776 28.2226 62.6232 25.5369 55.2963 25.015C53.5262 24.8873 51.7555 24.8833 50 25C51.7555 25.1166 53.4941 25.354 55.2002 25.7084C62.2674 27.1671 68.7823 30.6888 73.5343 35.7009C79.1441 41.5391 82.114 49.4813 81.5 57C80.9605 64.5377 76.9574 71.3771 71.2398 75.7896C66.3748 79.5904 60.3411 81.7139 54.3349 82.0513C52.8846 82.1347 51.4349 82.1167 50 82Z" fill="currentColor"/>
<path d="M50 102V75L36 88.2245L50 102Z" fill="currentColor"/>
</svg>
