<svg  viewBox="0 0 120 120" fill="none" xmlns="http://www.w3.org/2000/svg">
<path d="M67.8947 49.9975L67.8947 47.9985L63.8926 48.0036L63.8925 50.0025L65.8936 50L67.8947 49.9975ZM65.8934 68.3228L66.893 70.0531L67.8944 69.475L67.8944 68.3203L65.8934 68.3228ZM65.8936 50L63.8925 50.0025L63.8923 68.3253L65.8934 68.3228L67.8944 68.3203L67.8947 49.9975L65.8936 50ZM65.8934 68.3228L64.8937 66.5925L50.7503 74.7582L51.75 76.4885L52.7496 78.2188L66.893 70.0531L65.8934 68.3228Z" fill="currentColor"/>
<path d="M66.75 90.8516L61.75 100.352L70.75 107.352" stroke="currentColor" stroke-width="4"/>
<path d="M27.5 65C27.5 74.2826 31.1875 83.185 37.7513 89.7487C42.9438 94.9413 49.5999 98.3338 56.75 99.5246" stroke="currentColor" stroke-width="4"/>
<path d="M36.5 68L27 63L20 72" stroke="currentColor" stroke-width="4"/>
<path d="M64 100C73.2826 100 82.185 96.3125 88.7487 89.7487C95.3125 83.185 99 74.2826 99 65C99 55.7174 95.3125 46.815 88.7487 40.2513C82.185 33.6875 73.2826 30 64 30" stroke="currentColor" stroke-width="4"/>
</svg>
