<?xml version="1.0" encoding="UTF-8" standalone="no"?>
<!DOCTYPE svg PUBLIC "-//W3C//DTD SVG 1.1//EN" "http://www.w3.org/Graphics/SVG/1.1/DTD/svg11.dtd">
<svg width="100%" height="100%" viewBox="0 0 150 150" version="1.1" xmlns="http://www.w3.org/2000/svg" xmlns:xlink="http://www.w3.org/1999/xlink" xml:space="preserve" xmlns:serif="http://www.serif.com/" style="fill-rule:evenodd;clip-rule:evenodd;stroke-linejoin:round;stroke-miterlimit:2;">
    <g transform="matrix(1.48554,0,0,1.64569,26.72,16.1667)">
        <path d="M39.159,0L1,0C0.448,0 0,0.448 0,1L0,17.5C0,18.052 0.448,18.5 1,18.5L29.5,18.5C30.052,18.5 30.5,18.948 30.5,19.5L30.5,37.055C30.5,37.338 30.62,37.608 30.831,37.798L40.215,46.243C40.398,46.409 40.637,46.5 40.884,46.5L58.5,46.5C59.052,46.5 59.5,46.948 59.5,47.5L59.5,70.5C59.5,71.052 59.948,71.5 60.5,71.5L78.5,71.5C79.052,71.5 79.5,71.052 79.5,70.5L79.5,36.96C79.5,36.668 79.372,36.391 79.151,36.201L69.281,27.741C69.1,27.585 68.869,27.5 68.63,27.5L51.5,27.5C50.948,27.5 50.5,27.052 50.5,26.5L50.5,8.991C50.5,8.681 50.356,8.389 50.111,8.2L39.77,0.209C39.595,0.073 39.38,0 39.159,0Z" style="fill:white;fill-rule:nonzero;"/>
    </g>
    <g transform="matrix(1.48554,0,0,1.64569,5.17966,16.1667)">
        <circle cx="9.5" cy="9.5" r="2.5" style="fill:white;"/>
    </g>
    <g transform="matrix(1.48554,0,0,1.64569,5.17966,16.1667)">
        <circle cx="9.5" cy="16.5" r="2.5" style="fill:white;"/>
    </g>
    <g transform="matrix(1.48554,0,0,1.64569,5.17966,16.1667)">
        <path d="M12,8.519L12,17.481C12,18.319 11.246,19 10.317,19L8.683,19C7.754,19 7,18.319 7,17.481L7,8.519C7,7.681 7.754,7 8.683,7L10.317,7C11.246,7 12,7.681 12,8.519Z" style="fill:white;"/>
    </g>
    <g transform="matrix(1.48554,0,0,1.64569,5.17966,16.1667)">
        <circle cx="2.5" cy="16.5" r="2.5" style="fill:white;"/>
    </g>
    <g transform="matrix(1.48554,0,0,1.64569,5.17966,16.1667)">
        <circle cx="2.5" cy="9.5" r="2.5" style="fill:white;"/>
    </g>
    <g transform="matrix(1.48554,0,0,1.64569,5.17966,16.1667)">
        <circle cx="2.5" cy="2.5" r="2.5" style="fill:white;"/>
    </g>
    <g transform="matrix(1.48554,0,0,1.64569,5.17966,16.1667)">
        <circle cx="9.5" cy="2.5" r="2.5" style="fill:white;"/>
    </g>
</svg>
