<svg width="256" height="75" viewBox="0 0 256 75" fill="none" xmlns="http://www.w3.org/2000/svg">
  <!-- Zig-zag house shape -->
  <g transform="translate(14.5, 3.5)">
    <path d="M39.1587 0H1C0.447715 0 0 0.447715 0 1V17.5C0 18.0523 0.447715 18.5 1 18.5H29.5C30.0523 18.5 30.5 18.9477 30.5 19.5V37.0546C30.5 37.3381 30.6203 37.6083 30.831 37.7979L40.2148 46.2433C40.3984 46.4086 40.6367 46.5 40.8837 46.5H58.5C59.0523 46.5 59.5 46.9477 59.5 47.5V70.5C59.5 71.0523 59.9477 71.5 60.5 71.5H78.5C79.0523 71.5 79.5 71.0523 79.5 70.5V36.9599C79.5 36.668 79.3724 36.3907 79.1508 36.2007L69.2809 27.7407C69.0996 27.5854 68.8688 27.5 68.6301 27.5H51.5C50.9477 27.5 50.5 27.0523 50.5 26.5V8.99104C50.5 8.68134 50.3565 8.38912 50.1114 8.19975L39.7701 0.208715C39.595 0.0734046 39.3799 0 39.1587 0Z" fill="white"/>
  </g>

  <!-- Decorative dots -->
  <g transform="translate(0, 0)">
    <circle cx="9.5" cy="9.5" r="2.5" fill="white"/>
    <circle cx="9.5" cy="16.5" r="2.5" fill="white"/>
    <rect x="7" y="7" width="5" height="12" rx="2.5" fill="white"/>
    <circle cx="2.5" cy="16.5" r="2.5" fill="white"/>
    <circle cx="2.5" cy="9.5" r="2.5" fill="white"/>
    <circle cx="2.5" cy="2.5" r="2.5" fill="white"/>
    <circle cx="9.5" cy="2.5" r="2.5" fill="white"/>
  </g>

  <!-- "Measurement Lab" text -->
  <text x="100" y="42" font-family="Inter, sans-serif" font-weight="800" font-size="22" fill="white">Measurement</text>
  <text x="100" y="66" font-family="Inter, sans-serif" font-weight="800" font-size="22" fill="white">Lab</text>
</svg>
