<svg fill="none" height="50" width="158" xmlns="http://www.w3.org/2000/svg"><g fill="#000"><path d="m34.049 10.665c1.449-1.475 6.391-1.107 8.275-1.327 5.465-.638 11.408-1.91 16.9-.971 1.689.289 3.82-.429 5.575-.547 2.204-.149 2.941-.502.224.155-6.953 1.681-13.672 3.199-20.806 4.116-4.352.559-8.712 1.122-13.089 1.46-.635.05-1.435-.023-2.059.161-2.061.606-3.939 1.639-6.122 1.928-3.178.422-6.977 1.517-10.059 2.409-1.937.56-4.853.519-.603.232 22.473-1.518 44.965-2.269 67.454-3.788 3.648-.247 7.171-.101 10.817-.347.126-.008 1.318.231 1.194.303-3.188 1.873-7.77 2.234-11.282 2.939-12.931 2.598-26.062 5.593-39.244 6.621-5.016.391-10.284.237-15.246 1.115-4.285.758-8.343 2.084-12.664 2.712-1.766.256-3.453.596-5.243.717-2.99.202 5.963-.594 8.944-.903 20.26-2.101 40.728-2.453 61.05-3.826l18.991-1.282c.358-.025 1.801.178.727.335-3.293.478-6.573 1.527-9.838 2.2-14.119 2.911-28.104 5.769-42.419 7.646-3.481.457-7.161.34-10.601 1.015-1.938.381-3.712 1.284-5.596 1.829-4.009 1.162-8.304 1.063-12.273 2.174-1.733.485-7.441 1.31-2.318.434 15.324-2.621 31.021-2.181 46.495-3.227 12.487-.843 24.966-2.838 37.415-3.679 8.67-.586-17.23 2.264-25.849 3.368-11.329 1.45-22.265 4.475-33.432 6.419-1.201.209-4.799.139-5.585 1.039-.159.182-.058.073.17-.011 1.386-.515 2.914-.58 4.363-.807 7.298-1.147 14.648-1.545 22.012-2.042 4.785-.323 9.615-.921 14.401-.674 2.519.129 5.162.121 7.68-.05" fill="none"/><path d="m34.049 10.665c1.449-1.475 6.391-1.107 8.275-1.327 5.465-.638 11.408-1.91 16.9-.971 1.689.289 3.82-.429 5.575-.547 2.204-.149 2.941-.502.224.155-6.953 1.681-13.672 3.199-20.806 4.116-4.352.559-8.712 1.122-13.089 1.46-.635.05-1.435-.023-2.059.161-2.061.606-3.939 1.639-6.122 1.928-3.178.422-6.977 1.517-10.059 2.409-1.937.56-4.853.519-.603.232 22.473-1.518 44.965-2.269 67.454-3.788 3.648-.247 7.171-.101 10.817-.347.126-.008 1.318.231 1.194.303-3.188 1.873-7.77 2.234-11.282 2.939-12.931 2.598-26.062 5.593-39.244 6.621-5.016.391-10.284.237-15.246 1.115-4.285.758-8.343 2.084-12.664 2.712-1.766.256-3.453.596-5.243.717-2.99.202 5.963-.594 8.944-.903 20.26-2.101 40.728-2.453 61.05-3.826l18.991-1.282c.358-.025 1.801.178.727.335-3.293.478-6.573 1.527-9.838 2.2-14.119 2.911-28.104 5.769-42.419 7.646-3.481.457-7.161.34-10.601 1.015-1.938.381-3.712 1.284-5.596 1.829-4.009 1.162-8.304 1.063-12.273 2.174-1.733.485-7.441 1.31-2.318.434 15.324-2.621 31.021-2.181 46.495-3.227 12.487-.843 24.966-2.838 37.415-3.679 8.67-.586-17.23 2.264-25.849 3.368-11.329 1.45-22.265 4.475-33.432 6.419-1.201.209-4.799.139-5.585 1.039-.159.182-.058.073.17-.011 1.386-.515 2.914-.58 4.363-.807 7.298-1.147 14.648-1.545 22.012-2.042 4.785-.323 9.615-.921 14.401-.674 2.519.129 5.162.121 7.68-.05" fill="none" stroke="#f8f26b" stroke-width="15"/><g fill="#000"><path d="m11.709 35.019h2.92v-23.6h-2.92v-2.16h12.28c1.866 0 3.586.307 5.16.92a11.017 11.017 0 0 1 4.08 2.64c1.146 1.173 2.026 2.627 2.64 4.36.64 1.733.96 3.747.96 6.04s-.32 4.307-.96 6.04c-.614 1.733-1.494 3.187-2.64 4.36a11.447 11.447 0 0 1 -4.08 2.68c-1.574.587-3.294.88-5.16.88h-12.28zm7.68-.2h3.92c2.746 0 4.813-.733 6.2-2.2 1.386-1.467 2.08-3.613 2.08-6.44v-5.92c0-2.827-.694-4.973-2.08-6.44-1.387-1.467-3.454-2.2-6.2-2.2h-3.92zm20.001.2h2.72v-15.44l-2.72-.52v-1.76l7.08-1.4v3.72h.2c.187-.48.414-.933.68-1.36a5.65 5.65 0 0 1 1.04-1.2 5.508 5.508 0 0 1 1.44-.84c.56-.213 1.187-.32 1.88-.32 1.227 0 2.2.307 2.92.92.747.613 1.12 1.493 1.12 2.64 0 .907-.24 1.627-.72 2.16-.453.507-1.08.76-1.88.76-.826 0-1.48-.213-1.96-.64-.453-.453-.68-1.013-.68-1.68 0-.453.094-.827.28-1.12.187-.32.414-.507.68-.56v-.12a.876.876 0 0 0 -.28-.04 2.105 2.105 0 0 0 -.48-.04c-.506 0-1.013.133-1.52.4-.48.267-.92.613-1.32 1.04-.373.4-.68.867-.92 1.4a3.524 3.524 0 0 0 -.36 1.52v12.48h3.52v2.16h-10.72zm23.875 2.64c-2.08 0-3.653-.507-4.72-1.52-1.04-1.04-1.56-2.453-1.56-4.24 0-2.027.72-3.56 2.16-4.6s3.787-1.56 7.04-1.56h2.88v-2.72c0-1.627-.36-2.867-1.08-3.72s-1.853-1.28-3.4-1.28c-1.307 0-2.293.187-2.96.56v.16c.293.133.56.373.8.72.267.32.4.773.4 1.36 0 .747-.227 1.347-.68 1.8-.427.453-1.053.68-1.88.68-.693 0-1.28-.227-1.76-.68-.453-.48-.68-1.12-.68-1.92 0-.613.173-1.2.52-1.76.373-.587.907-1.107 1.6-1.56s1.533-.813 2.52-1.08c1.013-.267 2.173-.4 3.48-.4 2.507 0 4.4.587 5.68 1.76s1.92 2.813 1.92 4.92v12.48h2.72v1.8c-.373.213-.853.4-1.44.56a7.12 7.12 0 0 1 -1.88.24c-1.227 0-2.133-.307-2.72-.92-.56-.64-.84-1.453-.84-2.44v-.2h-.2a7.161 7.161 0 0 1 -.72 1.32c-.293.4-.68.773-1.16 1.12-.453.347-1.013.613-1.68.8-.667.213-1.453.32-2.36.32zm1.76-2.8c1.173 0 2.133-.28 2.88-.84.773-.56 1.16-1.48 1.16-2.76v-3.56h-2.4c-1.893 0-3.213.307-3.96.92s-1.12 1.493-1.12 2.64v.76c0 .96.307 1.68.92 2.16.613.453 1.453.68 2.52.68zm13.192.16h2.72v-16.32h-2.72v-2.32h2.72v-2.52c0-1.067.174-2.04.52-2.92.347-.88.84-1.627 1.48-2.24a6.772 6.772 0 0 1 2.36-1.4c.934-.347 1.973-.52 3.12-.52 1.6 0 2.827.333 3.68 1 .88.667 1.32 1.52 1.32 2.56 0 .773-.227 1.387-.68 1.84-.427.453-.987.68-1.68.68-.72 0-1.28-.2-1.68-.6-.4-.427-.6-.947-.6-1.56 0-.48.107-.867.32-1.16.213-.32.467-.547.76-.68v-.12c-.32-.08-.733-.12-1.24-.12-2.133 0-3.2 1.507-3.2 4.52v3.24h4.32v2.32h-4.32v16.32h3.52v2.16h-10.72z"/><path d="m98.351 37.499c-1.52 0-2.586-.32-3.2-.96-.613-.64-.92-1.653-.92-3.04v-14.8h-2.72v-2.32h.68c.987 0 1.667-.173 2.04-.52.374-.347.68-.853.92-1.52l1.24-3.52h2.32v5.56h5v2.32h-5v16.2h5v1.76c-.453.213-1.186.4-2.2.56-.986.187-2.04.28-3.16.28zm6.733-2.48h2.72v-24.56l-2.72-.52v-1.76l7.2-1.4v28.24h2.72v2.16h-9.92zm17.723 2.64c-2.08 0-3.653-.507-4.72-1.52-1.04-1.04-1.56-2.453-1.56-4.24 0-2.027.72-3.56 2.16-4.6s3.787-1.56 7.04-1.56h2.88v-2.72c0-1.627-.36-2.867-1.08-3.72s-1.853-1.28-3.4-1.28c-1.306 0-2.293.187-2.96.56v.16c.294.133.56.373.8.72.267.32.4.773.4 1.36 0 .747-.226 1.347-.68 1.8-.426.453-1.053.68-1.88.68-.693 0-1.28-.227-1.76-.68-.453-.48-.68-1.12-.68-1.92 0-.613.174-1.2.52-1.76.374-.587.907-1.107 1.6-1.56.694-.453 1.534-.813 2.52-1.08 1.014-.267 2.174-.4 3.48-.4 2.507 0 4.4.587 5.68 1.76s1.92 2.813 1.92 4.92v12.48h2.72v1.8c-.373.213-.853.4-1.44.56-.586.16-1.213.24-1.88.24-1.226 0-2.133-.307-2.72-.92-.56-.64-.84-1.453-.84-2.44v-.2h-.2a7.044 7.044 0 0 1 -.72 1.32c-.293.4-.68.773-1.16 1.12-.453.347-1.013.613-1.68.8-.666.213-1.453.32-2.36.32zm1.76-2.8c1.174 0 2.134-.28 2.88-.84.774-.56 1.16-1.48 1.16-2.76v-3.56h-2.4c-1.893 0-3.213.307-3.96.92-.746.613-1.12 1.493-1.12 2.64v.76c0 .96.307 1.68.92 2.16.614.453 1.454.68 2.52.68zm24.362 2.8c-1.654 0-2.987-.36-4-1.08-.987-.72-1.694-1.56-2.12-2.52h-.2l-2.24 3.12h-1.96v-26.72l-2.72-.52v-1.76l7.2-1.4v12.72h.2c.426-.96 1.12-1.8 2.08-2.52s2.213-1.08 3.76-1.08c1.28 0 2.44.253 3.48.76a7.006 7.006 0 0 1 2.64 2.12c.72.933 1.28 2.08 1.68 3.44.4 1.333.6 2.853.6 4.56s-.2 3.24-.6 4.6c-.4 1.333-.96 2.467-1.68 3.4a7.385 7.385 0 0 1 -2.64 2.16c-1.04.48-2.2.72-3.48.72zm-1.4-2.88c1.52 0 2.733-.52 3.64-1.56.906-1.04 1.36-2.48 1.36-4.32v-4.24c0-1.84-.454-3.28-1.36-4.32-.907-1.04-2.12-1.56-3.64-1.56-.614 0-1.2.093-1.76.28a4.575 4.575 0 0 0 -1.48.76 4.22 4.22 0 0 0 -1.04 1.24c-.24.48-.36 1.027-.36 1.64v8.16c0 .613.12 1.16.36 1.64.266.48.613.893 1.04 1.24.453.347.946.613 1.48.8.56.16 1.146.24 1.76.24z"/></g></g></svg>