<svg width="108" xmlns="http://www.w3.org/2000/svg" height="50" fill="none"><g style="fill: rgb(0, 0, 0);"><path d="M34.049 10.665c1.449-1.475 6.391-1.107 8.275-1.327 5.465-.638 11.408-1.91 16.9-.971 1.689.289 3.82-.429 5.575-.547 2.204-.149 2.941-.502.224.155-6.953 1.681-13.672 3.199-20.806 4.116-4.352.559-8.712 1.122-13.089 1.46-.635.05-1.435-.023-2.059.161-2.061.606-3.939 1.639-6.122 1.928-3.178.422-6.977 1.517-10.059 2.409-1.937.56-4.853.519-.603.232 22.473-1.518 44.965-2.269 67.454-3.788 3.648-.247 7.171-.101 10.817-.347.126-.008 1.318.231 1.194.303-3.188 1.873-7.77 2.234-11.282 2.939-12.931 2.598-26.062 5.593-39.244 6.621-5.016.391-10.284.237-15.246 1.115-4.285.758-8.343 2.084-12.664 2.712-1.766.256-3.453.596-5.243.717-2.99.202 5.963-.594 8.944-.903 20.26-2.101 40.728-2.453 61.05-3.826l18.991-1.282c.358-.025 1.801.178.727.334-3.293.479-6.573 1.528-9.838 2.201-14.119 2.911-28.104 5.769-42.419 7.646-3.481.457-7.161.34-10.601 1.015-1.938.381-3.712 1.284-5.596 1.829-4.009 1.162-8.304 1.063-12.273 2.174-1.733.485-7.441 1.31-2.318.434 15.324-2.621 31.021-2.181 46.495-3.227 12.487-.843 24.966-2.838 37.415-3.679 8.67-.586-17.23 2.264-25.849 3.368-11.329 1.45-22.265 4.475-33.432 6.419-1.201.209-4.799.139-5.585 1.039-.159.182-.058.073.17-.011 1.386-.515 2.914-.58 4.363-.807 7.298-1.147 14.648-1.545 22.012-2.042 4.785-.323 9.615-.921 14.401-.674 2.519.129 5.162.121 7.68-.05" fill="none" style="fill: none;" class="fills"/><g fill="none" class="strokes"><path d="M34.049 10.665c1.449-1.475 6.391-1.107 8.275-1.327 5.465-.638 11.408-1.91 16.9-.971 1.689.289 3.82-.429 5.575-.547 2.204-.149 2.941-.502.224.155-6.953 1.681-13.672 3.199-20.806 4.116-4.352.559-8.712 1.122-13.089 1.46-.635.05-1.435-.023-2.059.161-2.061.606-3.939 1.639-6.122 1.928-3.178.422-6.977 1.517-10.059 2.409-1.937.56-4.853.519-.603.232 22.473-1.518 44.965-2.269 67.454-3.788 3.648-.247 7.171-.101 10.817-.347.126-.008 1.318.231 1.194.303-3.188 1.873-7.77 2.234-11.282 2.939-12.931 2.598-26.062 5.593-39.244 6.621-5.016.391-10.284.237-15.246 1.115-4.285.758-8.343 2.084-12.664 2.712-1.766.256-3.453.596-5.243.717-2.99.202 5.963-.594 8.944-.903 20.26-2.101 40.728-2.453 61.05-3.826l18.991-1.282c.358-.025 1.801.178.727.334-3.293.479-6.573 1.528-9.838 2.201-14.119 2.911-28.104 5.769-42.419 7.646-3.481.457-7.161.34-10.601 1.015-1.938.381-3.712 1.284-5.596 1.829-4.009 1.162-8.304 1.063-12.273 2.174-1.733.485-7.441 1.31-2.318.434 15.324-2.621 31.021-2.181 46.495-3.227 12.487-.843 24.966-2.838 37.415-3.679 8.67-.586-17.23 2.264-25.849 3.368-11.329 1.45-22.265 4.475-33.432 6.419-1.201.209-4.799.139-5.585 1.039-.159.182-.058.073.17-.011 1.386-.515 2.914-.58 4.363-.807 7.298-1.147 14.648-1.545 22.012-2.042 4.785-.323 9.615-.921 14.401-.674 2.519.129 5.162.121 7.68-.05" style="fill: none; stroke-width: 15; stroke: rgb(248, 242, 107); stroke-opacity: 1;" class="stroke-shape"/></g></g></svg>